<svg width="177" height="177" viewBox="0 0 177 177" fill="none" xmlns="http://www.w3.org/2000/svg">
<path d="M88.5 176.5C137.101 176.5 176.5 137.101 176.5 88.5C176.5 39.8989 137.101 0.5 88.5 0.5C39.8989 0.5 0.5 39.8989 0.5 88.5C0.5 137.101 39.8989 176.5 88.5 176.5Z" fill="#0000ED" stroke="#2A2AEA" stroke-linecap="round"/>
<path d="M15.076 82.0909H17.4943L20.733 89.9957H20.8608L24.0994 82.0909H26.5178V93H24.6214V85.5053H24.5202L21.5053 92.968H20.0884L17.0735 85.4893H16.9723V93H15.076V82.0909ZM28.5845 93V84.8182H30.5128V93H28.5845ZM29.554 83.657C29.2486 83.657 28.9858 83.5558 28.7656 83.3533C28.5455 83.1474 28.4354 82.9006 28.4354 82.6129C28.4354 82.3217 28.5455 82.0749 28.7656 81.8725C28.9858 81.6665 29.2486 81.5636 29.554 81.5636C29.8629 81.5636 30.1257 81.6665 30.3423 81.8725C30.5625 82.0749 30.6726 82.3217 30.6726 82.6129C30.6726 82.9006 30.5625 83.1474 30.3423 83.3533C30.1257 83.5558 29.8629 83.657 29.554 83.657ZM34.4239 82.0909V93H32.4956V82.0909H34.4239ZM40.0289 93.1598C39.2086 93.1598 38.5002 92.9893 37.9036 92.6484C37.3105 92.304 36.8542 91.8175 36.5346 91.1889C36.215 90.5568 36.0552 89.8129 36.0552 88.957C36.0552 88.1154 36.215 87.3768 36.5346 86.7411C36.8578 86.1019 37.3088 85.6048 37.8876 85.2496C38.4664 84.891 39.1465 84.7116 39.9277 84.7116C40.432 84.7116 40.9078 84.7933 41.3553 84.9567C41.8063 85.1165 42.204 85.3651 42.5485 85.7024C42.8965 86.0398 43.1699 86.4695 43.3688 86.9915C43.5676 87.5099 43.6671 88.1278 43.6671 88.8452V89.4364H36.9608V88.1367H41.8187C41.8152 87.7674 41.7353 87.4389 41.579 87.1513C41.4228 86.8601 41.2044 86.631 40.9238 86.4641C40.6468 86.2972 40.3237 86.2138 39.9544 86.2138C39.5602 86.2138 39.214 86.3097 38.9157 86.5014C38.6174 86.6896 38.3848 86.9382 38.2179 87.2472C38.0545 87.5526 37.9711 87.8881 37.9675 88.2539V89.3885C37.9675 89.8643 38.0545 90.2727 38.2285 90.6136C38.4025 90.951 38.6458 91.2102 38.9583 91.3913C39.2708 91.5689 39.6365 91.6577 40.0556 91.6577C40.3361 91.6577 40.59 91.6186 40.8173 91.5405C41.0446 91.4588 41.2417 91.3398 41.4086 91.1836C41.5755 91.0273 41.7015 90.8338 41.7868 90.603L43.5872 90.8054C43.4735 91.2812 43.2569 91.6967 42.9373 92.0518C42.6213 92.4034 42.2164 92.6768 41.7228 92.8722C41.2292 93.0639 40.6646 93.1598 40.0289 93.1598ZM46.2625 96.0682C45.9997 96.0682 45.7565 96.0469 45.5328 96.0043C45.3126 95.9652 45.1368 95.919 45.0054 95.8658L45.4529 94.3636C45.7334 94.4453 45.9838 94.4844 46.2039 94.4808C46.4241 94.4773 46.6176 94.408 46.7845 94.2731C46.955 94.1417 47.0988 93.9215 47.216 93.6126L47.3811 93.1705L44.4142 84.8182H46.4596L48.3453 90.9972H48.4305L50.3215 84.8182H52.3722L49.0963 93.9908C48.9436 94.424 48.7412 94.7951 48.4891 95.104C48.2369 95.4165 47.928 95.6545 47.5622 95.8178C47.2 95.9847 46.7668 96.0682 46.2625 96.0682ZM66.8502 85.7717H64.858C64.8012 85.445 64.6965 85.1555 64.5438 84.9034C64.3911 84.6477 64.2011 84.4311 63.9738 84.2536C63.7465 84.076 63.4873 83.9428 63.1961 83.854C62.9085 83.7617 62.5977 83.7156 62.2639 83.7156C61.6709 83.7156 61.1453 83.8647 60.6872 84.163C60.2291 84.4577 59.8705 84.891 59.6112 85.4627C59.352 86.0309 59.2224 86.7251 59.2224 87.5455C59.2224 88.38 59.352 89.0831 59.6112 89.6548C59.874 90.223 60.2327 90.6527 60.6872 90.9439C61.1453 91.2315 61.6691 91.3754 62.2586 91.3754C62.5853 91.3754 62.8907 91.3327 63.1748 91.2475C63.4624 91.1587 63.7199 91.0291 63.9472 90.8587C64.178 90.6882 64.3715 90.4787 64.5278 90.2301C64.6876 89.9815 64.7977 89.6974 64.858 89.3778L66.8502 89.3885C66.7757 89.907 66.6141 90.3935 66.3655 90.848C66.1205 91.3026 65.7991 91.7038 65.4014 92.0518C65.0036 92.3963 64.5384 92.6662 64.0058 92.8615C63.4731 93.0533 62.8818 93.1491 62.232 93.1491C61.2732 93.1491 60.4173 92.9272 59.6645 92.4833C58.9117 92.0394 58.3186 91.3984 57.8854 90.5604C57.4521 89.7223 57.2355 88.7173 57.2355 87.5455C57.2355 86.37 57.4539 85.3651 57.8907 84.5305C58.3275 83.6925 58.9223 83.0515 59.6752 82.6076C60.428 82.1637 61.2803 81.9418 62.232 81.9418C62.8392 81.9418 63.4039 82.027 63.9259 82.1974C64.4479 82.3679 64.9131 82.6183 65.3215 82.9485C65.7298 83.2752 66.0654 83.6765 66.3282 84.1523C66.5945 84.6246 66.7686 85.1644 66.8502 85.7717ZM69.8465 96.0682C69.5837 96.0682 69.3405 96.0469 69.1167 96.0043C68.8966 95.9652 68.7208 95.919 68.5894 95.8658L69.0368 94.3636C69.3174 94.4453 69.5677 94.4844 69.7879 94.4808C70.0081 94.4773 70.2016 94.408 70.3685 94.2731C70.539 94.1417 70.6828 93.9215 70.8 93.6126L70.9651 93.1705L67.9981 84.8182H70.0436L71.9292 90.9972H72.0145L73.9055 84.8182H75.9562L72.6803 93.9908C72.5276 94.424 72.3252 94.7951 72.0731 95.104C71.8209 95.4165 71.512 95.6545 71.1462 95.8178C70.784 95.9847 70.3508 96.0682 69.8465 96.0682ZM77.2906 93V84.8182H79.1602V86.1818H79.2455C79.3946 85.7095 79.6503 85.3455 80.0125 85.0898C80.3783 84.8306 80.7955 84.701 81.2643 84.701C81.3708 84.701 81.4898 84.7063 81.6212 84.717C81.7561 84.7241 81.868 84.7365 81.9568 84.7543V86.5281C81.8751 86.4996 81.7455 86.4748 81.5679 86.4535C81.3939 86.4286 81.2252 86.4162 81.0619 86.4162C80.7103 86.4162 80.3943 86.4925 80.1137 86.6452C79.8367 86.7944 79.6183 87.0021 79.4585 87.2685C79.2987 87.5348 79.2188 87.842 79.2188 88.19V93H77.2906ZM88.4527 89.5589V84.8182H90.3809V93H88.5113V91.5458H88.426C88.2414 92.0039 87.9378 92.3786 87.5152 92.6697C87.0961 92.9609 86.5795 93.1065 85.9651 93.1065C85.4289 93.1065 84.9548 92.9876 84.5429 92.7496C84.1345 92.5082 83.8149 92.1584 83.5841 91.7003C83.3532 91.2386 83.2378 90.6811 83.2378 90.0277V84.8182H85.1661V89.7294C85.1661 90.2479 85.3081 90.6598 85.5922 90.9652C85.8763 91.2706 86.2492 91.4233 86.7108 91.4233C86.9949 91.4233 87.2702 91.354 87.5365 91.2156C87.8028 91.0771 88.0212 90.8711 88.1917 90.5977C88.3657 90.3207 88.4527 89.9744 88.4527 89.5589ZM98.8304 86.9808L97.0726 87.1726C97.0229 86.995 96.9359 86.8281 96.8116 86.6719C96.6909 86.5156 96.5275 86.3896 96.3216 86.2937C96.1156 86.1978 95.8635 86.1499 95.5652 86.1499C95.1639 86.1499 94.8265 86.2369 94.5531 86.4109C94.2832 86.5849 94.15 86.8104 94.1536 87.0874C94.15 87.3253 94.237 87.5188 94.4146 87.668C94.5957 87.8171 94.894 87.9396 95.3095 88.0355L96.7051 88.3338C97.4792 88.5007 98.0545 88.7653 98.4309 89.1275C98.8109 89.4897 99.0027 89.9638 99.0062 90.5497C99.0027 91.0646 98.8517 91.5192 98.5534 91.9134C98.2587 92.304 97.8485 92.6094 97.323 92.8295C96.7974 93.0497 96.1937 93.1598 95.5119 93.1598C94.5105 93.1598 93.7044 92.9503 93.0936 92.5312C92.4828 92.1087 92.1188 91.521 92.0016 90.7681L93.8819 90.587C93.9672 90.9563 94.1483 91.2351 94.4252 91.4233C94.7022 91.6115 95.0627 91.7056 95.5066 91.7056C95.9647 91.7056 96.3322 91.6115 96.6092 91.4233C96.8897 91.2351 97.03 91.0025 97.03 90.7255C97.03 90.4911 96.9395 90.2976 96.7583 90.1449C96.5808 89.9922 96.3038 89.875 95.9274 89.7933L94.5318 89.5004C93.747 89.337 93.1664 89.0618 92.79 88.6747C92.4135 88.2841 92.2271 87.7905 92.2306 87.1939C92.2271 86.6896 92.3638 86.2528 92.6408 85.8835C92.9213 85.5107 93.3102 85.223 93.8074 85.0206C94.3081 84.8146 94.8851 84.7116 95.5385 84.7116C96.4973 84.7116 97.252 84.9158 97.8024 85.3242C98.3564 85.7326 98.699 86.2848 98.8304 86.9808ZM109.276 86.7518V88.3391H104.365V86.7518H109.276ZM115.11 82.0909H117.528L120.767 89.9957H120.895L124.134 82.0909H126.552V93H124.656V85.5053H124.554L121.54 92.968H120.123L117.108 85.4893H117.006V93H115.11V82.0909ZM130.973 93.1651C130.455 93.1651 129.988 93.0728 129.572 92.8881C129.16 92.6999 128.834 92.4229 128.592 92.0572C128.354 91.6914 128.235 91.2404 128.235 90.7042C128.235 90.2425 128.32 89.8608 128.491 89.5589C128.661 89.2571 128.894 89.0156 129.189 88.8345C129.483 88.6534 129.815 88.5167 130.185 88.4244C130.558 88.3285 130.943 88.2592 131.341 88.2166C131.82 88.1669 132.209 88.1225 132.507 88.0835C132.805 88.0408 133.022 87.9769 133.157 87.8917C133.296 87.8029 133.365 87.6662 133.365 87.4815V87.4496C133.365 87.0483 133.246 86.7376 133.008 86.5174C132.77 86.2972 132.427 86.1871 131.98 86.1871C131.508 86.1871 131.133 86.2901 130.856 86.4961C130.582 86.7021 130.398 86.9453 130.302 87.2259L128.502 86.9702C128.644 86.473 128.878 86.0575 129.205 85.7237C129.531 85.3864 129.931 85.1342 130.403 84.9673C130.875 84.7969 131.397 84.7116 131.969 84.7116C132.363 84.7116 132.756 84.7578 133.146 84.8501C133.537 84.9425 133.894 85.0952 134.217 85.3082C134.54 85.5178 134.799 85.8036 134.995 86.1658C135.194 86.5281 135.293 86.9808 135.293 87.5241V93H133.439V91.8761H133.375C133.258 92.1033 133.093 92.3164 132.88 92.5153C132.671 92.7106 132.406 92.8686 132.086 92.9893C131.77 93.1065 131.399 93.1651 130.973 93.1651ZM131.474 91.7482C131.861 91.7482 132.196 91.6719 132.481 91.5192C132.765 91.3629 132.983 91.157 133.136 90.9013C133.292 90.6456 133.37 90.3668 133.37 90.065V89.1009C133.31 89.1506 133.207 89.1967 133.061 89.2393C132.919 89.282 132.759 89.3192 132.582 89.3512C132.404 89.3832 132.228 89.4116 132.054 89.4364C131.88 89.4613 131.729 89.4826 131.602 89.5004C131.314 89.5394 131.057 89.6033 130.829 89.6921C130.602 89.7809 130.423 89.9052 130.291 90.065C130.16 90.2212 130.094 90.4237 130.094 90.6722C130.094 91.0273 130.224 91.2955 130.483 91.4766C130.742 91.6577 131.073 91.7482 131.474 91.7482ZM139.16 82.0909V93H137.232V82.0909H139.16ZM141.143 93V84.8182H143.071V93H141.143ZM142.113 83.657C141.807 83.657 141.544 83.5558 141.324 83.3533C141.104 83.1474 140.994 82.9006 140.994 82.6129C140.994 82.3217 141.104 82.0749 141.324 81.8725C141.544 81.6665 141.807 81.5636 142.113 81.5636C142.422 81.5636 142.684 81.6665 142.901 81.8725C143.121 82.0749 143.231 82.3217 143.231 82.6129C143.231 82.9006 143.121 83.1474 142.901 83.3533C142.684 83.5558 142.422 83.657 142.113 83.657ZM145.139 93V82.0909H147.068V86.1712H147.148C147.247 85.9723 147.387 85.761 147.568 85.5373C147.75 85.31 147.995 85.1165 148.304 84.9567C148.612 84.7933 149.007 84.7116 149.486 84.7116C150.118 84.7116 150.688 84.8732 151.196 85.1964C151.707 85.516 152.112 85.9901 152.41 86.6186C152.712 87.2436 152.863 88.0107 152.863 88.9197C152.863 89.8182 152.716 90.5817 152.421 91.2102C152.126 91.8388 151.725 92.3182 151.217 92.6484C150.709 92.9787 150.134 93.1438 149.491 93.1438C149.023 93.1438 148.634 93.0657 148.325 92.9094C148.016 92.7532 147.767 92.565 147.579 92.3448C147.394 92.1211 147.251 91.9098 147.148 91.7109H147.036V93H145.139ZM147.03 88.9091C147.03 89.4382 147.105 89.9016 147.254 90.2994C147.407 90.6971 147.625 91.0078 147.909 91.2315C148.197 91.4517 148.545 91.5618 148.953 91.5618C149.38 91.5618 149.736 91.4482 150.024 91.2209C150.312 90.9901 150.528 90.6758 150.674 90.2781C150.823 89.8768 150.898 89.4205 150.898 88.9091C150.898 88.4013 150.825 87.9503 150.679 87.5561C150.534 87.1619 150.317 86.853 150.029 86.6293C149.742 86.4055 149.383 86.2937 148.953 86.2937C148.541 86.2937 148.192 86.402 147.904 86.6186C147.616 86.8352 147.398 87.1388 147.249 87.5295C147.103 87.9201 147.03 88.38 147.03 88.9091ZM159.717 89.5589V84.8182H161.646V93H159.776V91.5458H159.691C159.506 92.0039 159.202 92.3786 158.78 92.6697C158.361 92.9609 157.844 93.1065 157.23 93.1065C156.694 93.1065 156.219 92.9876 155.808 92.7496C155.399 92.5082 155.08 92.1584 154.849 91.7003C154.618 91.2386 154.502 90.6811 154.502 90.0277V84.8182H156.431V89.7294C156.431 90.2479 156.573 90.6598 156.857 90.9652C157.141 91.2706 157.514 91.4233 157.975 91.4233C158.26 91.4233 158.535 91.354 158.801 91.2156C159.067 91.0771 159.286 90.8711 159.456 90.5977C159.63 90.3207 159.717 89.9744 159.717 89.5589Z" fill="white"/>
</svg>
