<svg width="177" height="177" viewBox="0 0 177 177" fill="none" xmlns="http://www.w3.org/2000/svg">
<circle cx="88.5" cy="88.5" r="88" fill="#0000ED" stroke="#2A2AEA" stroke-linecap="round"/>
<path d="M32.076 82.0909H34.4943L37.733 89.9957H37.8608L41.0994 82.0909H43.5178V93H41.6214V85.5053H41.5202L38.5053 92.968H37.0884L34.0735 85.4893H33.9723V93H32.076V82.0909ZM47.9389 93.1651C47.4205 93.1651 46.9535 93.0728 46.538 92.8881C46.1261 92.6999 45.7994 92.4229 45.5579 92.0572C45.32 91.6914 45.201 91.2404 45.201 90.7042C45.201 90.2425 45.2862 89.8608 45.4567 89.5589C45.6271 89.2571 45.8597 89.0156 46.1545 88.8345C46.4492 88.6534 46.7813 88.5167 47.1506 88.4244C47.5234 88.3285 47.9087 88.2592 48.3065 88.2166C48.7859 88.1669 49.1747 88.1225 49.473 88.0835C49.7713 88.0408 49.9879 87.9769 50.1229 87.8917C50.2614 87.8029 50.3306 87.6662 50.3306 87.4815V87.4496C50.3306 87.0483 50.2116 86.7376 49.9737 86.5174C49.7358 86.2972 49.3931 86.1871 48.9457 86.1871C48.4734 86.1871 48.0987 86.2901 47.8217 86.4961C47.5483 86.7021 47.3636 86.9453 47.2678 87.2259L45.4673 86.9702C45.6094 86.473 45.8438 86.0575 46.1705 85.7237C46.4972 85.3864 46.8967 85.1342 47.369 84.9673C47.8413 84.7969 48.3633 84.7116 48.935 84.7116C49.3292 84.7116 49.7216 84.7578 50.1122 84.8501C50.5028 84.9425 50.8597 85.0952 51.1829 85.3082C51.506 85.5178 51.7653 85.8036 51.9606 86.1658C52.1594 86.5281 52.2589 86.9808 52.2589 87.5241V93H50.4052V91.8761H50.3413C50.2241 92.1033 50.0589 92.3164 49.8459 92.5153C49.6364 92.7106 49.3718 92.8686 49.0522 92.9893C48.7362 93.1065 48.3651 93.1651 47.9389 93.1651ZM48.4396 91.7482C48.8267 91.7482 49.1623 91.6719 49.4464 91.5192C49.7305 91.3629 49.9489 91.157 50.1016 90.9013C50.2578 90.6456 50.3359 90.3668 50.3359 90.065V89.1009C50.2756 89.1506 50.1726 89.1967 50.027 89.2393C49.8849 89.282 49.7251 89.3192 49.5476 89.3512C49.37 89.3832 49.1942 89.4116 49.0202 89.4364C48.8462 89.4613 48.6953 89.4826 48.5675 89.5004C48.2798 89.5394 48.0224 89.6033 47.7951 89.6921C47.5678 89.7809 47.3885 89.9052 47.2571 90.065C47.1257 90.2212 47.06 90.4237 47.06 90.6722C47.06 91.0273 47.1896 91.2955 47.4489 91.4766C47.7081 91.6577 48.0384 91.7482 48.4396 91.7482ZM54.1978 93V84.8182H56.0675V86.1818H56.1527C56.3018 85.7095 56.5575 85.3455 56.9197 85.0898C57.2855 84.8306 57.7028 84.701 58.1715 84.701C58.2781 84.701 58.397 84.7063 58.5284 84.717C58.6634 84.7241 58.7752 84.7365 58.864 84.7543V86.5281C58.7823 86.4996 58.6527 86.4748 58.4751 86.4535C58.3011 86.4286 58.1325 86.4162 57.9691 86.4162C57.6175 86.4162 57.3015 86.4925 57.021 86.6452C56.744 86.7944 56.5256 87.0021 56.3658 87.2685C56.206 87.5348 56.1261 87.842 56.1261 88.19V93H54.1978ZM61.5926 96.0682C61.3298 96.0682 61.0866 96.0469 60.8628 96.0043C60.6427 95.9652 60.4669 95.919 60.3355 95.8658L60.7829 94.3636C61.0635 94.4453 61.3138 94.4844 61.534 94.4808C61.7542 94.4773 61.9477 94.408 62.1146 94.2731C62.2851 94.1417 62.4289 93.9215 62.5461 93.6126L62.7112 93.1705L59.7442 84.8182H61.7897L63.6753 90.9972H63.7606L65.6515 84.8182H67.7023L64.4264 93.9908C64.2737 94.424 64.0713 94.7951 63.8192 95.104C63.567 95.4165 63.2581 95.6545 62.8923 95.8178C62.5301 95.9847 62.0969 96.0682 61.5926 96.0682ZM76.3263 93.1598C75.5273 93.1598 74.8348 92.984 74.2488 92.6325C73.6629 92.2809 73.2084 91.7891 72.8852 91.157C72.5656 90.5249 72.4058 89.7862 72.4058 88.9411C72.4058 88.0959 72.5656 87.3555 72.8852 86.7198C73.2084 86.0842 73.6629 85.5906 74.2488 85.239C74.8348 84.8874 75.5273 84.7116 76.3263 84.7116C77.1253 84.7116 77.8177 84.8874 78.4037 85.239C78.9896 85.5906 79.4424 86.0842 79.762 86.7198C80.0851 87.3555 80.2467 88.0959 80.2467 88.9411C80.2467 89.7862 80.0851 90.5249 79.762 91.157C79.4424 91.7891 78.9896 92.2809 78.4037 92.6325C77.8177 92.984 77.1253 93.1598 76.3263 93.1598ZM76.3369 91.6151C76.7702 91.6151 77.1324 91.4961 77.4236 91.2582C77.7148 91.0167 77.9314 90.6935 78.0734 90.2887C78.219 89.8839 78.2918 89.4329 78.2918 88.9357C78.2918 88.435 78.219 87.9822 78.0734 87.5774C77.9314 87.169 77.7148 86.8441 77.4236 86.6026C77.1324 86.3612 76.7702 86.2404 76.3369 86.2404C75.893 86.2404 75.5237 86.3612 75.229 86.6026C74.9378 86.8441 74.7194 87.169 74.5738 87.5774C74.4317 87.9822 74.3607 88.435 74.3607 88.9357C74.3607 89.4329 74.4317 89.8839 74.5738 90.2887C74.7194 90.6935 74.9378 91.0167 75.229 91.2582C75.5237 91.4961 75.893 91.6151 76.3369 91.6151ZM83.8116 88.206V93H81.8833V84.8182H83.7264V86.2085H83.8223C84.0105 85.7504 84.3105 85.3864 84.7225 85.1165C85.138 84.8466 85.6511 84.7116 86.2619 84.7116C86.8265 84.7116 87.3184 84.8324 87.7374 85.0739C88.16 85.3153 88.4867 85.6651 88.7175 86.1232C88.9519 86.5813 89.0673 87.1371 89.0637 87.7905V93H87.1355V88.0888C87.1355 87.5419 86.9934 87.114 86.7093 86.805C86.4288 86.4961 86.04 86.3416 85.5428 86.3416C85.2054 86.3416 84.9054 86.4162 84.6426 86.5653C84.3833 86.7109 84.1792 86.9222 84.03 87.1992C83.8844 87.4762 83.8116 87.8118 83.8116 88.206ZM97.0991 93.1651C96.5806 93.1651 96.1136 93.0728 95.6982 92.8881C95.2862 92.6999 94.9595 92.4229 94.718 92.0572C94.4801 91.6914 94.3612 91.2404 94.3612 90.7042C94.3612 90.2425 94.4464 89.8608 94.6168 89.5589C94.7873 89.2571 95.0199 89.0156 95.3146 88.8345C95.6094 88.6534 95.9414 88.5167 96.3107 88.4244C96.6836 88.3285 97.0689 88.2592 97.4666 88.2166C97.946 88.1669 98.3349 88.1225 98.6332 88.0835C98.9315 88.0408 99.1481 87.9769 99.283 87.8917C99.4215 87.8029 99.4908 87.6662 99.4908 87.4815V87.4496C99.4908 87.0483 99.3718 86.7376 99.1339 86.5174C98.896 86.2972 98.5533 86.1871 98.1058 86.1871C97.6335 86.1871 97.2589 86.2901 96.9819 86.4961C96.7085 86.7021 96.5238 86.9453 96.4279 87.2259L94.6275 86.9702C94.7695 86.473 95.0039 86.0575 95.3306 85.7237C95.6573 85.3864 96.0568 85.1342 96.5291 84.9673C97.0014 84.7969 97.5234 84.7116 98.0952 84.7116C98.4893 84.7116 98.8817 84.7578 99.2724 84.8501C99.663 84.9425 100.02 85.0952 100.343 85.3082C100.666 85.5178 100.925 85.8036 101.121 86.1658C101.32 86.5281 101.419 86.9808 101.419 87.5241V93H99.5653V91.8761H99.5014C99.3842 92.1033 99.2191 92.3164 99.006 92.5153C98.7965 92.7106 98.532 92.8686 98.2124 92.9893C97.8963 93.1065 97.5252 93.1651 97.0991 93.1651ZM97.5998 91.7482C97.9869 91.7482 98.3224 91.6719 98.6065 91.5192C98.8906 91.3629 99.109 91.157 99.2617 90.9013C99.418 90.6456 99.4961 90.3668 99.4961 90.065V89.1009C99.4357 89.1506 99.3327 89.1967 99.1871 89.2393C99.0451 89.282 98.8853 89.3192 98.7077 89.3512C98.5302 89.3832 98.3544 89.4116 98.1804 89.4364C98.0064 89.4613 97.8555 89.4826 97.7276 89.5004C97.44 89.5394 97.1825 89.6033 96.9553 89.6921C96.728 89.7809 96.5487 89.9052 96.4173 90.065C96.2859 90.2212 96.2202 90.4237 96.2202 90.6722C96.2202 91.0273 96.3498 91.2955 96.609 91.4766C96.8683 91.6577 97.1985 91.7482 97.5998 91.7482ZM110.648 93.1598C109.831 93.1598 109.129 92.9805 108.544 92.6218C107.961 92.2631 107.512 91.7678 107.196 91.1357C106.883 90.5 106.727 89.7685 106.727 88.9411C106.727 88.1101 106.887 87.3768 107.206 86.7411C107.526 86.1019 107.977 85.6048 108.559 85.2496C109.145 84.891 109.838 84.7116 110.637 84.7116C111.301 84.7116 111.889 84.8342 112.4 85.0792C112.915 85.3207 113.325 85.6634 113.631 86.1072C113.936 86.5476 114.11 87.0625 114.153 87.652H112.309C112.235 87.2578 112.057 86.9293 111.777 86.6665C111.5 86.4002 111.129 86.267 110.664 86.267C110.269 86.267 109.923 86.3736 109.625 86.5866C109.327 86.7962 109.094 87.098 108.927 87.4922C108.764 87.8864 108.682 88.3587 108.682 88.9091C108.682 89.4666 108.764 89.946 108.927 90.3473C109.09 90.745 109.319 91.0522 109.614 91.2688C109.912 91.4819 110.262 91.5884 110.664 91.5884C110.948 91.5884 111.202 91.5352 111.425 91.4286C111.653 91.3185 111.843 91.1605 111.995 90.9545C112.148 90.7486 112.253 90.4982 112.309 90.2035H114.153C114.106 90.7823 113.936 91.2955 113.641 91.7429C113.346 92.1868 112.945 92.5348 112.437 92.7869C111.93 93.0355 111.333 93.1598 110.648 93.1598ZM115.736 93V84.8182H117.606V86.1818H117.691C117.84 85.7095 118.096 85.3455 118.458 85.0898C118.824 84.8306 119.241 84.701 119.71 84.701C119.816 84.701 119.935 84.7063 120.066 84.717C120.201 84.7241 120.313 84.7365 120.402 84.7543V86.5281C120.32 86.4996 120.191 86.4748 120.013 86.4535C119.839 86.4286 119.671 86.4162 119.507 86.4162C119.156 86.4162 118.84 86.4925 118.559 86.6452C118.282 86.7944 118.064 87.0021 117.904 87.2685C117.744 87.5348 117.664 87.842 117.664 88.19V93H115.736ZM124.915 93.1598C124.116 93.1598 123.424 92.984 122.838 92.6325C122.252 92.2809 121.797 91.7891 121.474 91.157C121.154 90.5249 120.995 89.7862 120.995 88.9411C120.995 88.0959 121.154 87.3555 121.474 86.7198C121.797 86.0842 122.252 85.5906 122.838 85.239C123.424 84.8874 124.116 84.7116 124.915 84.7116C125.714 84.7116 126.407 84.8874 126.993 85.239C127.578 85.5906 128.031 86.0842 128.351 86.7198C128.674 87.3555 128.836 88.0959 128.836 88.9411C128.836 89.7862 128.674 90.5249 128.351 91.157C128.031 91.7891 127.578 92.2809 126.993 92.6325C126.407 92.984 125.714 93.1598 124.915 93.1598ZM124.926 91.6151C125.359 91.6151 125.721 91.4961 126.012 91.2582C126.304 91.0167 126.52 90.6935 126.662 90.2887C126.808 89.8839 126.881 89.4329 126.881 88.9357C126.881 88.435 126.808 87.9822 126.662 87.5774C126.52 87.169 126.304 86.8441 126.012 86.6026C125.721 86.3612 125.359 86.2404 124.926 86.2404C124.482 86.2404 124.113 86.3612 123.818 86.6026C123.527 86.8441 123.308 87.169 123.163 87.5774C123.021 87.9822 122.95 88.435 122.95 88.9357C122.95 89.4329 123.021 89.8839 123.163 90.2887C123.308 90.6935 123.527 91.0167 123.818 91.2582C124.113 91.4961 124.482 91.6151 124.926 91.6151ZM136.939 86.9808L135.181 87.1726C135.131 86.995 135.044 86.8281 134.92 86.6719C134.799 86.5156 134.636 86.3896 134.43 86.2937C134.224 86.1978 133.972 86.1499 133.674 86.1499C133.272 86.1499 132.935 86.2369 132.661 86.4109C132.392 86.5849 132.258 86.8104 132.262 87.0874C132.258 87.3253 132.345 87.5188 132.523 87.668C132.704 87.8171 133.002 87.9396 133.418 88.0355L134.813 88.3338C135.588 88.5007 136.163 88.7653 136.539 89.1275C136.919 89.4897 137.111 89.9638 137.115 90.5497C137.111 91.0646 136.96 91.5192 136.662 91.9134C136.367 92.304 135.957 92.6094 135.431 92.8295C134.906 93.0497 134.302 93.1598 133.62 93.1598C132.619 93.1598 131.813 92.9503 131.202 92.5312C130.591 92.1087 130.227 91.521 130.11 90.7681L131.99 90.587C132.076 90.9563 132.257 91.2351 132.534 91.4233C132.811 91.6115 133.171 91.7056 133.615 91.7056C134.073 91.7056 134.441 91.6115 134.718 91.4233C134.998 91.2351 135.138 91.0025 135.138 90.7255C135.138 90.4911 135.048 90.2976 134.867 90.1449C134.689 89.9922 134.412 89.875 134.036 89.7933L132.64 89.5004C131.855 89.337 131.275 89.0618 130.898 88.6747C130.522 88.2841 130.335 87.7905 130.339 87.1939C130.335 86.6896 130.472 86.2528 130.749 85.8835C131.03 85.5107 131.419 85.223 131.916 85.0206C132.416 84.8146 132.994 84.7116 133.647 84.7116C134.606 84.7116 135.36 84.9158 135.911 85.3242C136.465 85.7326 136.807 86.2848 136.939 86.9808ZM145.171 86.9808L143.413 87.1726C143.364 86.995 143.277 86.8281 143.152 86.6719C143.032 86.5156 142.868 86.3896 142.662 86.2937C142.456 86.1978 142.204 86.1499 141.906 86.1499C141.505 86.1499 141.167 86.2369 140.894 86.4109C140.624 86.5849 140.491 86.8104 140.494 87.0874C140.491 87.3253 140.578 87.5188 140.755 87.668C140.937 87.8171 141.235 87.9396 141.65 88.0355L143.046 88.3338C143.82 88.5007 144.395 88.7653 144.772 89.1275C145.152 89.4897 145.343 89.9638 145.347 90.5497C145.343 91.0646 145.193 91.5192 144.894 91.9134C144.6 92.304 144.189 92.6094 143.664 92.8295C143.138 93.0497 142.535 93.1598 141.853 93.1598C140.851 93.1598 140.045 92.9503 139.434 92.5312C138.824 92.1087 138.46 91.521 138.342 90.7681L140.223 90.587C140.308 90.9563 140.489 91.2351 140.766 91.4233C141.043 91.6115 141.403 91.7056 141.847 91.7056C142.305 91.7056 142.673 91.6115 142.95 91.4233C143.231 91.2351 143.371 91.0025 143.371 90.7255C143.371 90.4911 143.28 90.2976 143.099 90.1449C142.922 89.9922 142.645 89.875 142.268 89.7933L140.873 89.5004C140.088 89.337 139.507 89.0618 139.131 88.6747C138.754 88.2841 138.568 87.7905 138.571 87.1939C138.568 86.6896 138.705 86.2528 138.982 85.8835C139.262 85.5107 139.651 85.223 140.148 85.0206C140.649 84.8146 141.226 84.7116 141.879 84.7116C142.838 84.7116 143.593 84.9158 144.143 85.3242C144.697 85.7326 145.04 86.2848 145.171 86.9808Z" fill="white"/>
</svg>
