<svg width="177" height="177" viewBox="0 0 177 177" fill="none" xmlns="http://www.w3.org/2000/svg">
<circle cx="88.5" cy="88.5" r="88" fill="#0000ED" stroke="#2A2AEA" stroke-linecap="round"/>
<path d="M17.3718 93L14.293 82.0909H16.4183L18.3839 90.1076H18.4851L20.5838 82.0909H22.5174L24.6214 90.1129H24.7173L26.6829 82.0909H28.8082L25.7294 93H23.7798L21.5959 85.3455H21.5107L19.3214 93H17.3718ZM30.0933 93V84.8182H32.0216V93H30.0933ZM31.0628 83.657C30.7574 83.657 30.4946 83.5558 30.2744 83.3533C30.0542 83.1474 29.9442 82.9006 29.9442 82.6129C29.9442 82.3217 30.0542 82.0749 30.2744 81.8725C30.4946 81.6665 30.7574 81.5636 31.0628 81.5636C31.3717 81.5636 31.6345 81.6665 31.8511 81.8725C32.0713 82.0749 32.1814 82.3217 32.1814 82.6129C32.1814 82.9006 32.0713 83.1474 31.8511 83.3533C31.6345 83.5558 31.3717 83.657 31.0628 83.657ZM40.4711 86.9808L38.7132 87.1726C38.6635 86.995 38.5765 86.8281 38.4522 86.6719C38.3315 86.5156 38.1681 86.3896 37.9622 86.2937C37.7562 86.1978 37.5041 86.1499 37.2058 86.1499C36.8045 86.1499 36.4672 86.2369 36.1937 86.4109C35.9238 86.5849 35.7907 86.8104 35.7942 87.0874C35.7907 87.3253 35.8777 87.5188 36.0552 87.668C36.2363 87.8171 36.5346 87.9396 36.9501 88.0355L38.3457 88.3338C39.1199 88.5007 39.6951 88.7653 40.0716 89.1275C40.4515 89.4897 40.6433 89.9638 40.6468 90.5497C40.6433 91.0646 40.4924 91.5192 40.1941 91.9134C39.8993 92.304 39.4892 92.6094 38.9636 92.8295C38.438 93.0497 37.8343 93.1598 37.1525 93.1598C36.1511 93.1598 35.345 92.9503 34.7342 92.5312C34.1234 92.1087 33.7594 91.521 33.6422 90.7681L35.5225 90.587C35.6078 90.9563 35.7889 91.2351 36.0659 91.4233C36.3429 91.6115 36.7033 91.7056 37.1472 91.7056C37.6053 91.7056 37.9728 91.6115 38.2498 91.4233C38.5304 91.2351 38.6706 91.0025 38.6706 90.7255C38.6706 90.4911 38.5801 90.2976 38.399 90.1449C38.2214 89.9922 37.9444 89.875 37.568 89.7933L36.1724 89.5004C35.3876 89.337 34.807 89.0618 34.4306 88.6747C34.0542 88.2841 33.8677 87.7905 33.8713 87.1939C33.8677 86.6896 34.0044 86.2528 34.2814 85.8835C34.562 85.5107 34.9508 85.223 35.448 85.0206C35.9487 84.8146 36.5257 84.7116 37.1792 84.7116C38.138 84.7116 38.8926 84.9158 39.443 85.3242C39.997 85.7326 40.3397 86.2848 40.4711 86.9808ZM44.1651 88.206V93H42.2369V82.0909H44.1225V86.2085H44.2184C44.4102 85.7468 44.7067 85.3828 45.108 85.1165C45.5128 84.8466 46.0277 84.7116 46.6527 84.7116C47.2209 84.7116 47.7163 84.8306 48.1388 85.0685C48.5614 85.3065 48.8881 85.6545 49.119 86.1126C49.3533 86.5707 49.4705 87.13 49.4705 87.7905V93H47.5423V88.0888C47.5423 87.5384 47.4002 87.1104 47.1161 86.805C46.8356 86.4961 46.4414 86.3416 45.9336 86.3416C45.5927 86.3416 45.2873 86.4162 45.0174 86.5653C44.7511 86.7109 44.5415 86.9222 44.3888 87.1992C44.2397 87.4762 44.1651 87.8118 44.1651 88.206ZM54.4963 82.0909H56.7282L59.3968 86.9169H59.5034L62.1721 82.0909H64.4039L60.4355 88.9304V93H58.4647V88.9304L54.4963 82.0909ZM67.7638 93.1598C66.9648 93.1598 66.2723 92.984 65.6863 92.6325C65.1004 92.2809 64.6459 91.7891 64.3227 91.157C64.0031 90.5249 63.8433 89.7862 63.8433 88.9411C63.8433 88.0959 64.0031 87.3555 64.3227 86.7198C64.6459 86.0842 65.1004 85.5906 65.6863 85.239C66.2723 84.8874 66.9648 84.7116 67.7638 84.7116C68.5628 84.7116 69.2552 84.8874 69.8412 85.239C70.4271 85.5906 70.8799 86.0842 71.1995 86.7198C71.5226 87.3555 71.6842 88.0959 71.6842 88.9411C71.6842 89.7862 71.5226 90.5249 71.1995 91.157C70.8799 91.7891 70.4271 92.2809 69.8412 92.6325C69.2552 92.984 68.5628 93.1598 67.7638 93.1598ZM67.7744 91.6151C68.2077 91.6151 68.5699 91.4961 68.8611 91.2582C69.1523 91.0167 69.3689 90.6935 69.5109 90.2887C69.6565 89.8839 69.7293 89.4329 69.7293 88.9357C69.7293 88.435 69.6565 87.9822 69.5109 87.5774C69.3689 87.169 69.1523 86.8441 68.8611 86.6026C68.5699 86.3612 68.2077 86.2404 67.7744 86.2404C67.3305 86.2404 66.9612 86.3612 66.6665 86.6026C66.3753 86.8441 66.1569 87.169 66.0113 87.5774C65.8692 87.9822 65.7982 88.435 65.7982 88.9357C65.7982 89.4329 65.8692 89.8839 66.0113 90.2887C66.1569 90.6935 66.3753 91.0167 66.6665 91.2582C66.9612 91.4961 67.3305 91.6151 67.7744 91.6151ZM78.5357 89.5589V84.8182H80.464V93H78.5943V91.5458H78.5091C78.3244 92.0039 78.0208 92.3786 77.5982 92.6697C77.1792 92.9609 76.6625 93.1065 76.0481 93.1065C75.5119 93.1065 75.0378 92.9876 74.6259 92.7496C74.2175 92.5082 73.8979 92.1584 73.6671 91.7003C73.4363 91.2386 73.3208 90.6811 73.3208 90.0277V84.8182H75.2491V89.7294C75.2491 90.2479 75.3912 90.6598 75.6752 90.9652C75.9593 91.2706 76.3322 91.4233 76.7939 91.4233C77.0779 91.4233 77.3532 91.354 77.6195 91.2156C77.8858 91.0771 78.1042 90.8711 78.2747 90.5977C78.4487 90.3207 78.5357 89.9744 78.5357 89.5589ZM88.5486 93L85.4697 82.0909H87.5951L89.5606 90.1076H89.6618L91.7606 82.0909H93.6942L95.7982 90.1129H95.8941L97.8596 82.0909H99.985L96.9062 93H94.9566L92.7726 85.3455H92.6874L90.4981 93H88.5486ZM104.057 93.1598C103.237 93.1598 102.528 92.9893 101.932 92.6484C101.339 92.304 100.883 91.8175 100.563 91.1889C100.243 90.5568 100.084 89.8129 100.084 88.957C100.084 88.1154 100.243 87.3768 100.563 86.7411C100.886 86.1019 101.337 85.6048 101.916 85.2496C102.495 84.891 103.175 84.7116 103.956 84.7116C104.46 84.7116 104.936 84.7933 105.384 84.9567C105.835 85.1165 106.232 85.3651 106.577 85.7024C106.925 86.0398 107.198 86.4695 107.397 86.9915C107.596 87.5099 107.695 88.1278 107.695 88.8452V89.4364H100.989V88.1367H105.847C105.843 87.7674 105.764 87.4389 105.607 87.1513C105.451 86.8601 105.233 86.631 104.952 86.4641C104.675 86.2972 104.352 86.2138 103.983 86.2138C103.589 86.2138 103.242 86.3097 102.944 86.5014C102.646 86.6896 102.413 86.9382 102.246 87.2472C102.083 87.5526 101.999 87.8881 101.996 88.2539V89.3885C101.996 89.8643 102.083 90.2727 102.257 90.6136C102.431 90.951 102.674 91.2102 102.987 91.3913C103.299 91.5689 103.665 91.6577 104.084 91.6577C104.364 91.6577 104.618 91.6186 104.846 91.5405C105.073 91.4588 105.27 91.3398 105.437 91.1836C105.604 91.0273 105.73 90.8338 105.815 90.603L107.616 90.8054C107.502 91.2812 107.285 91.6967 106.966 92.0518C106.65 92.4034 106.245 92.6768 105.751 92.8722C105.258 93.0639 104.693 93.1598 104.057 93.1598ZM109.327 93V84.8182H111.196V86.1818H111.282C111.431 85.7095 111.686 85.3455 112.049 85.0898C112.414 84.8306 112.832 84.701 113.3 84.701C113.407 84.701 113.526 84.7063 113.657 84.717C113.792 84.7241 113.904 84.7365 113.993 84.7543V86.5281C113.911 86.4996 113.782 86.4748 113.604 86.4535C113.43 86.4286 113.261 86.4162 113.098 86.4162C112.746 86.4162 112.43 86.4925 112.15 86.6452C111.873 86.7944 111.654 87.0021 111.495 87.2685C111.335 87.5348 111.255 87.842 111.255 88.19V93H109.327ZM118.559 93.1598C117.739 93.1598 117.03 92.9893 116.434 92.6484C115.841 92.304 115.384 91.8175 115.065 91.1889C114.745 90.5568 114.585 89.8129 114.585 88.957C114.585 88.1154 114.745 87.3768 115.065 86.7411C115.388 86.1019 115.839 85.6048 116.418 85.2496C116.997 84.891 117.677 84.7116 118.458 84.7116C118.962 84.7116 119.438 84.7933 119.886 84.9567C120.337 85.1165 120.734 85.3651 121.079 85.7024C121.427 86.0398 121.7 86.4695 121.899 86.9915C122.098 87.5099 122.197 88.1278 122.197 88.8452V89.4364H115.491V88.1367H120.349C120.345 87.7674 120.266 87.4389 120.109 87.1513C119.953 86.8601 119.735 86.631 119.454 86.4641C119.177 86.2972 118.854 86.2138 118.485 86.2138C118.09 86.2138 117.744 86.3097 117.446 86.5014C117.148 86.6896 116.915 86.9382 116.748 87.2472C116.585 87.5526 116.501 87.8881 116.498 88.2539V89.3885C116.498 89.8643 116.585 90.2727 116.759 90.6136C116.933 90.951 117.176 91.2102 117.489 91.3913C117.801 91.5689 118.167 91.6577 118.586 91.6577C118.866 91.6577 119.12 91.6186 119.348 91.5405C119.575 91.4588 119.772 91.3398 119.939 91.1836C120.106 91.0273 120.232 90.8338 120.317 90.603L122.117 90.8054C122.004 91.2812 121.787 91.6967 121.468 92.0518C121.152 92.4034 120.747 92.6768 120.253 92.8722C119.759 93.0639 119.195 93.1598 118.559 93.1598ZM127.635 93V82.0909H129.611V86.7092H134.666V82.0909H136.647V93H134.666V88.3658H129.611V93H127.635ZM142.334 93.1598C141.513 93.1598 140.805 92.9893 140.208 92.6484C139.615 92.304 139.159 91.8175 138.839 91.1889C138.52 90.5568 138.36 89.8129 138.36 88.957C138.36 88.1154 138.52 87.3768 138.839 86.7411C139.162 86.1019 139.613 85.6048 140.192 85.2496C140.771 84.891 141.451 84.7116 142.232 84.7116C142.737 84.7116 143.213 84.7933 143.66 84.9567C144.111 85.1165 144.509 85.3651 144.853 85.7024C145.201 86.0398 145.475 86.4695 145.673 86.9915C145.872 87.5099 145.972 88.1278 145.972 88.8452V89.4364H139.265V88.1367H144.123C144.12 87.7674 144.04 87.4389 143.884 87.1513C143.727 86.8601 143.509 86.631 143.229 86.4641C142.952 86.2972 142.628 86.2138 142.259 86.2138C141.865 86.2138 141.519 86.3097 141.22 86.5014C140.922 86.6896 140.689 86.9382 140.523 87.2472C140.359 87.5526 140.276 87.8881 140.272 88.2539V89.3885C140.272 89.8643 140.359 90.2727 140.533 90.6136C140.707 90.951 140.95 91.2102 141.263 91.3913C141.575 91.5689 141.941 91.6577 142.36 91.6577C142.641 91.6577 142.895 91.6186 143.122 91.5405C143.349 91.4588 143.546 91.3398 143.713 91.1836C143.88 91.0273 144.006 90.8338 144.091 90.603L145.892 90.8054C145.778 91.2812 145.562 91.6967 145.242 92.0518C144.926 92.4034 144.521 92.6768 144.028 92.8722C143.534 93.0639 142.969 93.1598 142.334 93.1598ZM147.603 93V84.8182H149.473V86.1818H149.558C149.707 85.7095 149.963 85.3455 150.325 85.0898C150.691 84.8306 151.108 84.701 151.577 84.701C151.683 84.701 151.802 84.7063 151.934 84.717C152.069 84.7241 152.18 84.7365 152.269 84.7543V86.5281C152.188 86.4996 152.058 86.4748 151.88 86.4535C151.706 86.4286 151.538 86.4162 151.374 86.4162C151.023 86.4162 150.707 86.4925 150.426 86.6452C150.149 86.7944 149.931 87.0021 149.771 87.2685C149.611 87.5348 149.531 87.842 149.531 88.19V93H147.603ZM156.836 93.1598C156.015 93.1598 155.307 92.9893 154.71 92.6484C154.117 92.304 153.661 91.8175 153.341 91.1889C153.022 90.5568 152.862 89.8129 152.862 88.957C152.862 88.1154 153.022 87.3768 153.341 86.7411C153.664 86.1019 154.115 85.6048 154.694 85.2496C155.273 84.891 155.953 84.7116 156.734 84.7116C157.239 84.7116 157.714 84.7933 158.162 84.9567C158.613 85.1165 159.011 85.3651 159.355 85.7024C159.703 86.0398 159.977 86.4695 160.175 86.9915C160.374 87.5099 160.474 88.1278 160.474 88.8452V89.4364H153.767V88.1367H158.625C158.622 87.7674 158.542 87.4389 158.386 87.1513C158.229 86.8601 158.011 86.631 157.73 86.4641C157.453 86.2972 157.13 86.2138 156.761 86.2138C156.367 86.2138 156.021 86.3097 155.722 86.5014C155.424 86.6896 155.191 86.9382 155.025 87.2472C154.861 87.5526 154.778 87.8881 154.774 88.2539V89.3885C154.774 89.8643 154.861 90.2727 155.035 90.6136C155.209 90.951 155.452 91.2102 155.765 91.3913C156.077 91.5689 156.443 91.6577 156.862 91.6577C157.143 91.6577 157.397 91.6186 157.624 91.5405C157.851 91.4588 158.048 91.3398 158.215 91.1836C158.382 91.0273 158.508 90.8338 158.593 90.603L160.394 90.8054C160.28 91.2812 160.064 91.6967 159.744 92.0518C159.428 92.4034 159.023 92.6768 158.529 92.8722C158.036 93.0639 157.471 93.1598 156.836 93.1598Z" fill="white"/>
</svg>
